<?xml version="1.0" standalone="no"?>
<!DOCTYPE svg PUBLIC "-//W3C//DTD SVG 20010904//EN"
 "http://www.w3.org/TR/2001/REC-SVG-20010904/DTD/svg10.dtd">
<svg version="1.0" xmlns="http://www.w3.org/2000/svg"
 width="385.000000pt" height="385.000000pt" viewBox="0 0 385.000000 385.000000"
 preserveAspectRatio="xMidYMid meet">
<metadata>
Created by potrace 1.14, written by Peter Selinger 2001-2017
</metadata>
<g transform="translate(0.000000,385.000000) scale(0.100000,-0.100000)"
fill="#000000" stroke="none">
<path d="M1780 3685 c-1 -22 -3 -47 -4 -55 -2 -8 -6 -53 -10 -100 -3 -47 -8
-96 -10 -110 -2 -14 -7 -61 -11 -105 -4 -44 -8 -91 -10 -105 -2 -14 -3 -39 -4
-56 l-1 -32 -96 -17 c-52 -9 -97 -15 -99 -14 -5 7 -195 332 -195 335 0 2 -16
28 -35 58 -19 30 -35 59 -35 63 0 4 -9 19 -20 33 l-19 25 9 -35 c5 -19 11 -46
13 -60 3 -14 12 -54 20 -90 9 -36 25 -108 37 -160 11 -52 28 -122 36 -156 7
-33 14 -65 14 -71 0 -6 -33 -28 -72 -48 -40 -21 -79 -42 -86 -48 -9 -7 -18 -5
-30 5 -23 19 -198 174 -242 214 -80 72 -180 155 -180 149 0 -3 20 -36 43 -73
43 -65 102 -163 198 -330 l48 -82 -74 -76 -74 -75 -133 57 c-73 32 -215 99
-315 150 -100 50 -184 89 -187 87 -3 -3 57 -50 132 -105 75 -56 181 -139 235
-187 54 -47 115 -100 134 -116 l35 -30 -40 -80 c-22 -44 -43 -90 -46 -102 -4
-13 -13 -20 -24 -19 -9 2 -53 7 -97 10 -44 4 -91 9 -105 11 -14 2 -56 6 -93
10 -37 3 -78 8 -90 11 -12 2 -33 6 -47 8 -14 3 -43 8 -65 10 l-40 5 60 -31
c33 -17 146 -69 250 -114 200 -88 195 -83 181 -144 -4 -14 -9 -56 -12 -95 -4
-38 -7 -71 -8 -72 -2 -2 -285 -66 -351 -79 -75 -15 -166 -37 -163 -39 2 -2 39
-6 83 -10 44 -3 96 -8 115 -10 19 -2 62 -6 95 -9 33 -3 92 -8 130 -12 39 -4
76 -7 82 -7 12 0 17 -18 27 -92 2 -17 9 -56 16 -88 7 -31 11 -59 9 -61 -2 -2
-98 -58 -214 -126 -116 -67 -214 -125 -218 -130 -5 -4 27 1 70 11 77 19 195
45 243 55 14 3 50 12 81 20 86 22 102 19 118 -18 15 -33 56 -105 86 -152 16
-25 16 -26 -111 -168 -71 -79 -145 -161 -166 -183 -21 -22 -38 -43 -38 -47 0
-4 91 48 202 114 112 66 208 123 215 125 7 3 42 -22 78 -56 36 -33 78 -70 94
-82 l28 -21 -54 -121 c-60 -137 -57 -130 -111 -249 -22 -48 -35 -84 -29 -81 7
3 66 67 132 143 66 77 136 158 156 181 l37 41 63 -30 c107 -50 136 -62 154
-62 14 0 16 -8 11 -52 -3 -29 -8 -80 -11 -113 -3 -33 -8 -76 -10 -95 -6 -52
-14 -128 -20 -195 -5 -58 -2 -52 92 165 54 124 101 230 105 236 6 8 20 9 47 3
21 -5 75 -10 120 -11 62 -2 82 -7 85 -18 3 -8 8 -31 12 -50 4 -19 8 -37 9 -40
1 -3 5 -21 9 -40 4 -19 19 -87 33 -150 14 -63 27 -122 28 -130 2 -8 4 -25 4
-37 1 -24 18 -33 18 -10 0 14 13 156 18 202 7 63 22 225 24 261 1 17 9 23 39
28 21 3 75 16 119 29 l81 23 59 -99 c94 -162 105 -180 131 -227 14 -25 33 -56
44 -69 10 -13 18 -31 19 -40 0 -9 3 -11 5 -5 3 6 -18 110 -45 230 -66 291 -64
284 -52 284 13 0 105 55 152 91 l35 28 40 -35 c21 -19 108 -97 192 -172 142
-127 200 -172 161 -126 -9 10 -40 61 -70 112 -30 51 -61 105 -70 120 -9 15
-25 43 -36 62 -11 19 -34 58 -51 86 -18 28 -32 55 -32 60 0 5 19 29 41 54 22
25 52 62 66 82 14 21 29 38 33 38 8 0 425 -181 470 -205 16 -8 30 -14 30 -11
0 2 -94 87 -209 189 -115 102 -206 189 -201 193 4 5 23 50 41 99 19 50 39 90
44 89 30 -1 192 -17 205 -19 74 -13 365 -26 354 -15 -5 4 -49 20 -99 35 -49
15 -103 33 -120 40 -16 8 -93 41 -170 74 l-140 60 2 33 c1 18 3 65 4 103 l2
71 81 18 c44 10 91 20 105 23 13 2 51 11 85 19 69 17 83 20 146 28 25 4 57 9
73 11 15 3 42 7 60 10 97 16 88 30 -21 30 -85 1 -272 13 -302 20 -8 2 -53 7
-100 10 -153 13 -145 9 -156 68 -9 49 -7 40 -23 96 -7 23 -11 44 -9 46 5 3
130 76 153 89 76 41 344 201 341 203 -2 2 -127 -24 -277 -57 -150 -34 -277
-62 -282 -63 -8 -2 -107 147 -107 161 0 4 17 26 38 48 56 63 165 185 199 224
55 65 145 191 139 197 -3 3 -37 -21 -75 -53 -58 -49 -161 -118 -256 -170 -30
-16 -121 -71 -148 -88 -22 -15 -25 -14 -62 19 -21 20 -53 48 -72 63 l-34 27
66 150 c37 83 74 166 83 185 16 35 87 153 143 239 66 101 26 69 -117 -94 -34
-39 -73 -82 -85 -96 -26 -28 -44 -48 -164 -184 -43 -49 -82 -91 -85 -93 -3 -1
-41 14 -85 33 l-80 35 1 52 c1 51 9 154 19 228 4 34 8 74 21 215 3 39 8 79 10
89 8 44 -18 -11 -121 -254 -60 -140 -113 -260 -118 -267 -8 -11 -57 -10 -122
2 -11 2 -31 4 -45 4 -24 1 -26 7 -59 159 -48 224 -91 415 -95 427 -3 6 -5 -8
-6 -30z"/>
</g>
</svg>
