<svg fill="none" height="48" viewBox="0 0 48 48" width="48" xmlns="http://www.w3.org/2000/svg"><g stroke="#fff" stroke-miterlimit="10" stroke-width="2"><path d="m36.0368 30.7424c-1.1731.6258-2.8268 1.1529-4.8025 1.5322"/><path d="m37.8725 35.956c.0564.1593.0854.323.0854.4867 0 2.4299-6.304 4.4004-14.0811 4.4004-7.7772 0-14.08118-1.9705-14.08118-4.4004 0-.1522.02465-.3019.07305-.4497l10.73423-30.49008c.5157-1.4662 1.7874-2.50292 3.2739-2.50292 1.4864 0 2.7581 1.03672 3.2738 2.50292z"/><path d="m36.1959 45.2434h-1.7557"/><path d="m37.9578 45.2435h4.3212c1.9863 0 3.5959-1.6096 3.5959-3.596 0-.5298-.117-1.0534-.3432-1.5322l-5.0586-10.7395c-.4612-1.0534-1.5014-1.7337-2.6508-1.7337h-2.877"/><path d="m32.674 45.2435h-27.20303c-1.98632 0-3.59597-1.6096-3.59597-3.596 0-.5298.11705-1.0534.34323-1.5322l5.05953-10.7395c.46027-1.0534 1.50052-1.7337 2.64989-1.7337h2.88045"/><path d="m22.0339 13.5529c-1.4618 0-2.8383-.2173-4.1232-.4057"/><path d="m25.6369 13.5608h-1.7602"/><path d="m33.0251 22.1865c-2.4607.6583-5.6562 1.0552-9.1483 1.0552-3.4939 0-6.6868-.3969-9.1475-1.0552"/><path d="m25.5278 32.8926c-.5412.0194-1.0921.0299-1.651.0299-5.1871 0-9.7168-.8765-12.1599-2.1808"/><path d="m28.9609 32.6267c-.4656.0563-.9443.1056-1.4319.1461"/></g></svg>