<svg fill="none" height="15" viewBox="0 0 91 15" width="91" xmlns="http://www.w3.org/2000/svg"><g fill="#f47d4e"><path d="m90.5 5.5675c0-.31325-.2543-.5675-.5675-.5675h-4.4325l-1.466-4.123c-.0805-.226-.2943-.377-.534-.377s-.4535.151-.534.377l-1.466 4.123h-4.4325c-.3133 0-.5675.25425-.5675.5675 0 .1685.0747.32825.204.436l3.296 2.7465-1.4773 5.0323c-.015.0512-.0227.1042-.0227.1577 0 .3092.251.56.5605.56.1227 0 .2425-.0405.34-.1152l4.0995-3.1348 4.0992 3.1348c.0978.0747.2175.1152.3403.1152.3095 0 .5605-.2508.5605-.56 0-.0535-.0077-.1065-.0227-.1577l-1.4773-5.0323 3.296-2.7465c.1292-.10775.204-.26775.204-.436z"/><path d="m71.5 5.5675c0-.31325-.2543-.5675-.5675-.5675h-4.4325l-1.466-4.123c-.0805-.226-.2943-.377-.534-.377s-.4535.151-.534.377l-1.466 4.123h-4.4325c-.3133 0-.5675.25425-.5675.5675 0 .1685.0747.32825.204.436l3.296 2.7465-1.4773 5.0323c-.015.0512-.0227.1042-.0227.1577 0 .3092.251.56.5605.56.1227 0 .2425-.0405.34-.1152l4.0995-3.1348 4.0992 3.1348c.0978.0747.2175.1152.3403.1152.3095 0 .5605-.2508.5605-.56 0-.0535-.0077-.1065-.0227-.1577l-1.4773-5.0323 3.296-2.7465c.1292-.10775.204-.26775.204-.436z"/><path d="m52.5 5.5675c0-.31325-.2543-.5675-.5675-.5675h-4.4325l-1.466-4.123c-.0805-.226-.2943-.377-.534-.377s-.4535.151-.534.377l-1.466 4.123h-4.4325c-.3133 0-.5675.25425-.5675.5675 0 .1685.0747.32825.204.436l3.296 2.7465-1.4773 5.0323c-.015.0512-.0227.1042-.0227.1577 0 .3092.251.56.5605.56.1227 0 .2425-.0405.34-.1152l4.0995-3.1348 4.0992 3.1348c.0978.0747.2175.1152.3403.1152.3095 0 .5605-.2508.5605-.56 0-.0535-.0077-.1065-.0227-.1577l-1.4773-5.0323 3.296-2.7465c.1292-.10775.204-.26775.204-.436z"/><path d="m33.5 5.5675c0-.31325-.2543-.5675-.5675-.5675h-4.4325l-1.466-4.123c-.0805-.226-.2943-.377-.534-.377s-.4535.151-.534.377l-1.466 4.123h-4.4325c-.3133 0-.5675.25425-.5675.5675 0 .1685.0747.32825.204.436l3.296 2.7465-1.4773 5.0323c-.015.0512-.0227.1042-.0227.1577 0 .3092.251.56.5605.56.1227 0 .2425-.0405.34-.1152l4.0995-3.1348 4.0992 3.1348c.0978.0747.2175.1152.3403.1152.3095 0 .5605-.2508.5605-.56 0-.0535-.0077-.1065-.0227-.1577l-1.4773-5.0323 3.296-2.7465c.1292-.10775.204-.26775.204-.436z"/><path d="m14.5 5.5675c0-.31325-.2543-.5675-.5675-.5675h-4.4325l-1.466-4.123c-.0805-.226-.29425-.377-.534-.377s-.4535.151-.534.377l-1.466 4.123h-4.4325c-.31325 0-.5675.25425-.5675.5675 0 .1685.07475.32825.204.436l3.296 2.7465-1.47725 5.0323c-.015.0512-.02275.1042-.02275.1577 0 .3092.251.56.5605.56.12275 0 .2425-.0405.34-.1152l4.0995-3.1348 4.0992 3.1348c.0978.0747.2175.1152.3403.1152.3095 0 .5605-.2508.5605-.56 0-.0535-.0077-.1065-.0227-.1577l-1.4773-5.0323 3.296-2.7465c.1292-.10775.204-.26775.204-.436z"/></g></svg>