<svg enable-background="new 0 0 512 512" viewBox="0 0 512 512" xmlns="http://www.w3.org/2000/svg"><path d="m507.834 301.608-54.769-48.312 52.832-50.399c1.941-1.852 2.74-4.591 2.099-7.189-.642-2.597-2.629-4.655-5.211-5.401l-70.316-20.292 25.988-68.056c.955-2.5.495-5.316-1.204-7.389-1.7-2.072-4.383-3.085-7.038-2.657l-72.274 11.652-5.878-72.561c-.216-2.666-1.846-5.015-4.275-6.161s-5.291-.917-7.504.601l-60.266 41.342-36.609-63.044c-1.345-2.316-3.83-3.742-6.52-3.742s-5.174 1.426-6.519 3.742l-42.023 72.368-72.69-41.953c-2.327-1.343-5.197-1.349-7.528-.018-2.333 1.331-3.773 3.799-3.78 6.473l-.176 72.795-72.965-6.014c-2.675-.22-5.275.997-6.807 3.194-1.533 2.197-1.771 5.041-.622 7.459l31.242 65.835-68.513 25.681c-2.516.943-4.335 3.15-4.773 5.789-.438 2.638.575 5.308 2.656 7.003l56.619 46.152-50.813 52.41c-1.866 1.925-2.559 4.694-1.816 7.264.744 2.57 2.81 4.55 5.419 5.194l71.055 17.551-23.295 69.011c-.856 2.535-.286 5.331 1.494 7.336 1.781 2.005 4.502 2.913 7.137 2.382l71.76-14.443 8.721 72.278c.319 2.655 2.041 4.938 4.513 5.99 2.474 1.052 5.323.712 7.475-.891l58.596-43.647 39.055 59.566c1.382 2.179 3.789 3.492 6.367 3.492.098 0 .196-.002.295-.006 2.687-.104 5.115-1.626 6.368-3.992l34.107-62.405 61.839 38.974c2.273 1.432 5.137 1.55 7.522.31 2.382-1.24 3.919-3.65 4.03-6.322l3.031-72.734 72.674 8.84c2.664.324 5.31-.791 6.928-2.927 1.618-2.137 1.966-4.969.914-7.43l-28.636-66.997 69.465-23.003c2.552-.845 4.456-2.979 4.997-5.599.54-2.618-.367-5.325-2.378-7.1z" fill="#ffa600"/><ellipse cx="254.35" cy="254.691" fill="#ffdb2d" rx="155.069" ry="154.949"/><path d="m254.354 99.743c-3.884 0-7.732.147-11.543.428 80.25 5.901 143.525 72.825 143.525 154.521 0 81.695-63.275 148.619-143.525 154.521 3.811.28 7.66.428 11.543.428 85.641 0 155.068-69.373 155.068-154.948 0-85.577-69.427-154.95-155.068-154.95z" fill="#ffca00"/></svg>